<svg width="87" height="50" viewBox="0 0 87 50" fill="none" xmlns="http://www.w3.org/2000/svg">
<g clip-path="url(#clip0_1319_1448)">
<path d="M51.4966 31.2932C51.4966 31.2932 57.069 22.8881 63.3192 25.9601C69.5695 29.031 71.4172 30.1105 73.7838 29.6461C73.7838 29.6461 69.2776 34.4163 61.2986 30.5403C58.4177 25.0992 52.5816 30.0926 51.4966 31.292V31.2932Z" fill="white"/>
<path d="M34.7594 31.2932C34.7594 31.2932 29.1882 22.8881 22.9367 25.9601C16.6865 29.031 14.8388 30.1105 12.4722 29.6461C12.4722 29.6461 16.9783 34.4163 24.9574 30.5403C27.8383 25.0992 33.6743 30.0926 34.7594 31.292V31.2932Z" fill="white"/>
<path d="M66.9133 14.0672C64.6973 21.8193 60.4571 23.9259 60.8761 23.8499C85.9736 21.4464 80.433 0.5 80.433 0.5C80.433 0.5 78.8066 10.2708 66.9133 14.0672Z" fill="white"/>
<path d="M19.3425 14.0672C21.5585 21.8193 25.7987 23.9259 25.3798 23.8499C0.283402 21.4464 5.82402 0.5 5.82402 0.5C5.82402 0.5 7.45043 10.2708 19.3437 14.0672H19.3425Z" fill="white"/>
<path d="M71.8243 22.8868C69.8508 23.8202 67.6218 24.5339 65.1445 25.0291C75.0419 31.2694 83.1704 23.3856 83.1704 23.3856C79.8375 25.7369 73.6061 23.7502 71.8243 22.8868Z" fill="white"/>
<path d="M14.4319 22.8868C16.4055 23.8202 18.6344 24.5339 21.1117 25.0291C11.2144 31.2694 4.42041 23.3856 4.42041 23.3856C7.75326 25.7369 12.6501 23.7502 14.4319 22.8868Z" fill="white"/>
<path d="M65.8059 8.47644C65.8059 8.47644 65.9036 19.2542 55.6685 25.3343C45.4334 31.4155 46.2443 44.3593 45.7653 45.9921C45.7653 45.9921 45.1074 25.5456 54.4976 20.2054C54.4976 20.2054 63.9959 14.9424 65.8059 8.47644Z" fill="white"/>
<path d="M20.4512 8.47644C20.4512 8.47644 20.3535 19.2542 30.5886 25.3343C40.8237 31.4155 40.0128 44.3593 40.4918 45.9921C40.4918 45.9921 41.1497 25.5456 31.7596 20.2054C31.7596 20.2054 22.2612 14.9424 20.4512 8.47644Z" fill="white"/>
<path d="M79.3576 16.6988C77.9642 18.6891 76.1742 20.3563 74.0029 21.7029C76.0295 22.1768 84.4334 23.2918 86.9989 13.9331C84.0274 17.6203 80.3932 17.0669 79.3576 16.6988Z" fill="white"/>
<path d="M6.89851 16.6988C8.2919 18.6891 10.0819 20.3563 12.2532 21.7029C10.2266 22.1768 2.56651 23.2918 0.000976562 13.9331C2.97253 17.6203 5.86406 17.0669 6.89969 16.6988H6.89851Z" fill="white"/>
<path d="M34.9771 19.6082C34.9771 19.6082 42.0958 25.7202 42.3277 49.5L43.0291 5.14673C43.0291 5.14673 40.5542 16.1786 34.9771 19.6082Z" fill="white"/>
<path d="M43.0303 5.14673L43.7317 49.5C43.7952 27.0253 51.0823 19.6082 51.0823 19.6082C45.5052 16.1786 43.0303 5.14673 43.0303 5.14673Z" fill="white"/>
</g>
<defs>
<clipPath id="clip0_1319_1448">
<rect width="87" height="49" fill="white" transform="translate(0 0.5)"/>
</clipPath>
</defs>
</svg>
